<svg xmlns="http://www.w3.org/2000/svg" width="217.234" height="48.66" viewBox="0 0 217.234 48.66">
  <g id="Grupo_283" data-name="Grupo 283" transform="translate(-59.92 -121.459)">
    <path id="Trazado_1882" data-name="Trazado 1882" d="M10.428,1.334H-1.336l-3.2,6.04H-9.35L5.731-20.063H10.9L16.311,7.374H11.494ZM9.8-2.14,7.468-15.168.52-2.14ZM135.166,3.584h11.212l-.711,3.79H129.52l.671-3.593L143.3-10.589H132.955l.711-3.79h15.475l-.671,3.592Zm17.647-23.845a2.85,2.85,0,0,1,.987-2.171,3.479,3.479,0,0,1,2.448-.908,2.571,2.571,0,0,1,1.8.592,1.984,1.984,0,0,1,.651,1.54A2.84,2.84,0,0,1,157.728-19a3.5,3.5,0,0,1-2.428.869,2.632,2.632,0,0,1-1.836-.592A1.984,1.984,0,0,1,152.813-20.261Zm4.106,5.882L153.049,7.374h-4.5l3.829-21.752Zm16.857-.355a6.957,6.957,0,0,1,5.053,1.8,6.842,6.842,0,0,1,1.855,5.152,13.914,13.914,0,0,1-.237,2.487L178.236,7.374h-4.5l2.132-12.2a7.649,7.649,0,0,0,.158-1.579,4.4,4.4,0,0,0-1.244-3.375,4.856,4.856,0,0,0-3.454-1.165,6.579,6.579,0,0,0-4.579,1.717,8.588,8.588,0,0,0-2.487,5.033v-.118L162.208,7.374h-4.54L161.5-14.378h4.54l-.829,4.816a9.14,9.14,0,0,1,3.533-3.829A9.7,9.7,0,0,1,173.775-14.734ZM191.54,7.69A7.844,7.844,0,0,1,185.6,5.361a8.921,8.921,0,0,1-2.23-6.435,18.7,18.7,0,0,1,.276-2.8,14.6,14.6,0,0,1,2.27-5.764,11.554,11.554,0,0,1,4.125-3.75,11.008,11.008,0,0,1,5.251-1.3,7.773,7.773,0,0,1,4.915,1.461,6.13,6.13,0,0,1,2.309,3.908l.908-5.053h4.461L204.016,7.611A13.685,13.685,0,0,1,201.844,13a11.485,11.485,0,0,1-4.165,3.691,11.959,11.959,0,0,1-5.665,1.342,10.285,10.285,0,0,1-6.988-2.171A8.141,8.141,0,0,1,182.3,9.979h4.461A4.336,4.336,0,0,0,188.382,13a6.123,6.123,0,0,0,3.869,1.086,7.168,7.168,0,0,0,4.7-1.658,7.691,7.691,0,0,0,2.566-4.816l.947-5.29a10.049,10.049,0,0,1-3.612,3.889A9.749,9.749,0,0,1,191.54,7.69Zm4.579-18.4a7.414,7.414,0,0,0-5.132,1.915,8.906,8.906,0,0,0-2.724,5.27,9.489,9.489,0,0,0-.158,1.777,5.307,5.307,0,0,0,1.461,3.987,5.529,5.529,0,0,0,4.027,1.421,7.463,7.463,0,0,0,5.093-1.954,8.831,8.831,0,0,0,2.8-5.231,7.854,7.854,0,0,0,.158-1.619,5.454,5.454,0,0,0-1.52-4.066A5.457,5.457,0,0,0,196.12-10.707Z" transform="translate(69.27 146.61)" fill="#1c1d1f"/>
    <path id="Trazado_1883" data-name="Trazado 1883" d="M14.815,3.221l2.9-8.247a5.707,5.707,0,0,0,.461-2.55.955.955,0,0,0-1.09-.8,3.631,3.631,0,0,0-2.067.809,9.574,9.574,0,0,0-2.191,2.348,17.4,17.4,0,0,0-1.9,3.719Q10.5-.33,10.209.524T9.77,1.974a4.461,4.461,0,0,0-.146,1.045A3.138,3.138,0,0,0,9.86,4.266a3.2,3.2,0,0,1,.236,1.27A2.421,2.421,0,0,1,8.467,7.67a10.355,10.355,0,0,1-4.528.809q-2.09,0-2.55-1.382A6.14,6.14,0,0,1,1.85,3.221L5.13-5.723a4.323,4.323,0,0,0,.438-2.236Q5.4-8.6,4.883-8.6a1.317,1.317,0,0,0-.584.157,4.187,4.187,0,0,0-.786.562,2.148,2.148,0,0,1-.786.483.892.892,0,0,1-.607-.056.743.743,0,0,1-.382-.7,2.752,2.752,0,0,1,.382-1.3A7.649,7.649,0,0,1,5.153-12.5a9.29,9.29,0,0,1,4.7-1.157,4.206,4.206,0,0,1,2.562.674A2.318,2.318,0,0,1,13.31-11a5.08,5.08,0,0,1-.348,1.719q-.348.955-.843,2.067T11.107-4.835a18.738,18.738,0,0,0-.854,2.663l-.539-.449a21.511,21.511,0,0,1,3.809-6.584,13.553,13.553,0,0,1,4.472-3.427,10.574,10.574,0,0,1,4.258-1.022,5.193,5.193,0,0,1,3.011.719,2.376,2.376,0,0,1,.989,2.112,4.946,4.946,0,0,1-.337,1.685q-.337.921-.809,2.011T24.14-4.8a17.37,17.37,0,0,0-.809,2.629l-.7-.449A23.944,23.944,0,0,1,25.41-7.868a15.822,15.822,0,0,1,3.225-3.393,11.933,11.933,0,0,1,3.359-1.831,9.94,9.94,0,0,1,3.157-.562,4.269,4.269,0,0,1,2.989.9,3.427,3.427,0,0,1,1.022,2.505,10.091,10.091,0,0,1-.708,3.719L35.982.547a4.219,4.219,0,0,0-.371,2.236q.191.64.663.64a1.329,1.329,0,0,0,.618-.157,3.919,3.919,0,0,0,.753-.562,2.807,2.807,0,0,1,.82-.494.7.7,0,0,1,.573.067.784.784,0,0,1,.4.719,2.656,2.656,0,0,1-.4,1.3,7.328,7.328,0,0,1-2.955,3.034,9.175,9.175,0,0,1-4.663,1.146,4.417,4.417,0,0,1-2.887-.786,2.942,2.942,0,0,1-1-2.225A9.139,9.139,0,0,1,28.14,2.1l2.517-7.123a5.011,5.011,0,0,0,.472-2.539,1,1,0,0,0-1.124-.809,3.61,3.61,0,0,0-2.045.809,9.574,9.574,0,0,0-2.191,2.348A16.725,16.725,0,0,0,23.893-1.5Q23.466-.33,23.174.524t-.438,1.449a4.461,4.461,0,0,0-.146,1.045,3.138,3.138,0,0,0,.236,1.247,3.2,3.2,0,0,1,.236,1.27A2.421,2.421,0,0,1,21.433,7.67a10.355,10.355,0,0,1-4.528.809,2.934,2.934,0,0,1-2.056-.618,2.275,2.275,0,0,1-.64-1.8A9.377,9.377,0,0,1,14.815,3.221ZM61.442.569a5.885,5.885,0,0,0-.258,2.292q.146.629.64.629a1.288,1.288,0,0,0,.6-.157,3.918,3.918,0,0,0,.753-.562,2.366,2.366,0,0,1,.8-.483.864.864,0,0,1,.6.056.784.784,0,0,1,.4.719,2.656,2.656,0,0,1-.4,1.3,7.444,7.444,0,0,1-2.887,2.977,7.853,7.853,0,0,1-4.056,1.135,3.312,3.312,0,0,1-2.6-.9,3.593,3.593,0,0,1-.8-2.472q0-.539.056-1.157t.18-1.348q.124-.73.337-1.6t.506-1.9L55.869.524a12.364,12.364,0,0,1-2.3,4.247,10.562,10.562,0,0,1-3.494,2.753,9.394,9.394,0,0,1-4.135.955A5.463,5.463,0,0,1,41.51,6.636q-1.55-1.843-1.124-5.618a15.47,15.47,0,0,1,1.146-4.3,17.107,17.107,0,0,1,2.393-4,16.727,16.727,0,0,1,3.539-3.3,17.106,17.106,0,0,1,4.606-2.247,18.109,18.109,0,0,1,5.55-.82,22.707,22.707,0,0,1,4.573.382,6.8,6.8,0,0,1,2.652,1.022,1.505,1.505,0,0,1,.73,1.427,1.431,1.431,0,0,1-.483,1q-.393.3-.8.607a1.859,1.859,0,0,0-.607,1.022ZM48.251.884a4.917,4.917,0,0,0,.213,2.663A1.262,1.262,0,0,0,49.6,4.3a2.68,2.68,0,0,0,1.573-.618A8.3,8.3,0,0,0,52.835,1.94a18.215,18.215,0,0,0,1.6-2.64,23.119,23.119,0,0,0,1.348-3.337A27.18,27.18,0,0,0,56.7-7.88a4.512,4.512,0,0,0-.011-2.258,1.036,1.036,0,0,0-1.045-.708,3.417,3.417,0,0,0-1.977.7A8.457,8.457,0,0,0,51.79-8.262a17.052,17.052,0,0,0-1.629,2.708,20.572,20.572,0,0,0-1.236,3.18A18.831,18.831,0,0,0,48.251.884ZM88.092-9.273l-4.854.494a2.816,2.816,0,0,0-.494-1.607,1.749,1.749,0,0,0-1.438-.528,3.724,3.724,0,0,0-2.191.764,9.173,9.173,0,0,0-2.022,2.067,16.688,16.688,0,0,0-1.7,2.921,18.961,18.961,0,0,0-1.168,3.337,14.6,14.6,0,0,0-.449,3.314,3.483,3.483,0,0,0,.472,2.236,1.651,1.651,0,0,0,1.348.64,2.727,2.727,0,0,0,1.438-.461A6.549,6.549,0,0,0,78.53,2.558,11.555,11.555,0,0,0,79.946.389a15.773,15.773,0,0,0,1.135-2.944L85.4-17.093a10.468,10.468,0,0,1,3.483-5.618,8.814,8.814,0,0,1,5.438-1.753,5.489,5.489,0,0,1,3.651,1.034,3.158,3.158,0,0,1,1.2,2.472,3.722,3.722,0,0,1-.888,2.584,3.193,3.193,0,0,1-2.505.989,3.083,3.083,0,0,1-1.55-.36,6.065,6.065,0,0,1-1.135-.831,9.218,9.218,0,0,0-1.022-.831,2.071,2.071,0,0,0-1.213-.36,1.764,1.764,0,0,0-1.348.551,2.089,2.089,0,0,0-.562,1.359,3.253,3.253,0,0,0,.27,1.27q.27.64.64,1.348a12.371,12.371,0,0,1,.674,1.55,7.1,7.1,0,0,1,.382,1.865,6.529,6.529,0,0,1-.281,2.281L87.755.547a5.447,5.447,0,0,0-.292,2.3q.157.64.652.64a1.288,1.288,0,0,0,.6-.157,4.442,4.442,0,0,0,.775-.562,2.147,2.147,0,0,1,.786-.483.892.892,0,0,1,.607.056.8.8,0,0,1,.382.719,2.752,2.752,0,0,1-.382,1.3,7.2,7.2,0,0,1-1.741,2.157A8.453,8.453,0,0,1,86.71,7.962a7.632,7.632,0,0,1-2.775.517,3.35,3.35,0,0,1-2.607-.9,3.561,3.561,0,0,1-.809-2.472,12.019,12.019,0,0,1,.112-1.584q.112-.843.337-1.876t.562-2.27l.9.494a16.4,16.4,0,0,1-2.753,4.876,10.8,10.8,0,0,1-3.539,2.82,9.141,9.141,0,0,1-3.977.91,6.76,6.76,0,0,1-3.719-.933A4.936,4.936,0,0,1,66.408,4.8a10.659,10.659,0,0,1-.27-4.483,15.384,15.384,0,0,1,1.652-5.348,16.133,16.133,0,0,1,3.438-4.46,15.951,15.951,0,0,1,10.909-4.168,8.12,8.12,0,0,1,3.292.584A4.5,4.5,0,0,1,87.406-11.5,4.041,4.041,0,0,1,88.092-9.273Zm7.842,7.752.775-.247q.775-.247,2.034-.618t2.7-.82q1.438-.449,2.82-.865t2.371-.753l-.764.9a11.393,11.393,0,0,0,.393-1.854,17.768,17.768,0,0,0,.146-2.393,3.88,3.88,0,0,0-.427-2.045,1.412,1.412,0,0,0-1.281-.764,2.457,2.457,0,0,0-1.528.607,6.452,6.452,0,0,0-1.438,1.708,11.516,11.516,0,0,0-1.146,2.64A17.3,17.3,0,0,0,99.934-2.6a7.512,7.512,0,0,0,.854,4.865,3.872,3.872,0,0,0,3.438,1.652,6.231,6.231,0,0,0,2.314-.427,7.082,7.082,0,0,0,2-1.213,8.219,8.219,0,0,0,1.6-1.843,4.582,4.582,0,0,1,.977-.966,1.458,1.458,0,0,1,.865-.225,1.08,1.08,0,0,1,.888.494,1.914,1.914,0,0,1,.056,1.528A8.146,8.146,0,0,1,111,4.782a10.616,10.616,0,0,1-3.932,2.674,15.609,15.609,0,0,1-5.988,1.022,11.32,11.32,0,0,1-5.415-1.124,6.359,6.359,0,0,1-2.932-3.18,10.323,10.323,0,0,1-.64-4.865,14.429,14.429,0,0,1,1.393-5.067A14.2,14.2,0,0,1,96.507-9.88a13.848,13.848,0,0,1,4.326-2.775,13.836,13.836,0,0,1,5.281-1,7.823,7.823,0,0,1,3.685.764,5.342,5.342,0,0,1,2.191,2.079,7.825,7.825,0,0,1,.955,2.977,2.766,2.766,0,0,0,.236.8.769.769,0,0,0,.483.438,1.07,1.07,0,0,1,.517.281.774.774,0,0,1,.18.551,1.339,1.339,0,0,1-.393.921,3.12,3.12,0,0,1-1.449.719q-1.034.292-2.618.753t-3.427,1q-1.843.539-3.663,1.079T99.473-.33q-1.517.427-2.427.7l-.91.27Z" transform="translate(85.846 145.922)" fill="#1c1d1f"/>
    <path id="Trazado_84" data-name="Trazado 84" d="M75.978,6.612C37.98-2.617,1.729,7.953,1.729,7.953l-.057.01a1.415,1.415,0,1,1-.5-2.786S31.92-3.32,72.708,1.458c.805.122,4.009.667,4.911.861l.15.037c1.613.375,2.976.943,2,2.727A3.507,3.507,0,0,1,75.978,6.612Z" transform="matrix(1, 0.017, -0.017, 1, 104.049, 160.741)" fill="#1c1d1f"/>
  </g>
</svg>
