<svg xmlns="http://www.w3.org/2000/svg" width="284.753" height="92.839" viewBox="0 0 284.753 92.839">
  <path id="Trazado_380" data-name="Trazado 380" d="M3434-3136l80.408,46.42L3434-3043.162Zm6.873,80.944,59.808-34.524-44.767-25.848v9.645l28.026,16.188-34.9,20.153v-49.952l-8.168-4.71Zm15.027-26.268,14.295-8.257-14.295-8.26Zm222.444,9.412a9.3,9.3,0,0,1-3.713-3.952,15.623,15.623,0,0,1-1.467-5.508q-.269-3.056-.267-6.109a42.014,42.014,0,0,1,.447-6.225,14.97,14.97,0,0,1,1.8-5.328,9.736,9.736,0,0,1,3.86-3.712,13.976,13.976,0,0,1,6.705-1.376,13.046,13.046,0,0,1,5.9,1.168,8.906,8.906,0,0,1,3.621,3.291,13.768,13.768,0,0,1,1.8,5.148,43.246,43.246,0,0,1,.478,6.736v1.858h-16.346v2.572a18.155,18.155,0,0,0,.211,2.784,9.125,9.125,0,0,0,.687,2.4,4.579,4.579,0,0,0,1.26,1.676,2.949,2.949,0,0,0,1.914.629,3.357,3.357,0,0,0,3.054-1.5,11.034,11.034,0,0,0,1.316-4.55h7.425q-.24,5.629-3,8.562t-8.681,2.935A13.738,13.738,0,0,1,3678.343-3071.913Zm5-26.013a4.115,4.115,0,0,0-1.289,1.5,7.4,7.4,0,0,0-.687,2.066,12.564,12.564,0,0,0-.211,2.273v1.26h8.443c-.04-1.239-.12-2.325-.24-3.266a8.341,8.341,0,0,0-.629-2.392,3.355,3.355,0,0,0-1.257-1.5,3.823,3.823,0,0,0-2.066-.51A3.5,3.5,0,0,0,3683.341-3097.926Zm-28.076,26.611a8.29,8.29,0,0,1-3.086-3.174h-.118v3.414h-7.9v-42.747h8.263v13.531h.12a9.319,9.319,0,0,1,2.963-2.875,7.792,7.792,0,0,1,3.98-.957,8.115,8.115,0,0,1,7.486,3.98q2.393,3.983,2.394,12.961t-2.394,12.873a8.157,8.157,0,0,1-7.486,3.892A8.982,8.982,0,0,1,3655.265-3071.315Zm-2.037-23.8a29.182,29.182,0,0,0-.806,7.933,29.2,29.2,0,0,0,.806,7.936,3.414,3.414,0,0,0,3.562,2.664,3.379,3.379,0,0,0,3.5-2.664,29.231,29.231,0,0,0,.807-7.936,29.208,29.208,0,0,0-.807-7.933,3.378,3.378,0,0,0-3.5-2.664A3.414,3.414,0,0,0,3653.228-3095.115Zm-36.88,22.632q-2.124-2.064-2.122-6.915v-23.887h8.26v22.212a5.52,5.52,0,0,0,.837,3.5,3.357,3.357,0,0,0,2.7.99q4.372,0,4.37-5.332v-21.372h8.263v32.21h-7.9v-3.772h-.12a7.826,7.826,0,0,1-3.413,3.414,10.83,10.83,0,0,1-4.79,1.017A8.375,8.375,0,0,1,3616.347-3072.483Zm-43.314.57a9.339,9.339,0,0,1-3.713-3.952,15.616,15.616,0,0,1-1.464-5.508q-.27-3.056-.271-6.109a41.908,41.908,0,0,1,.45-6.225,15.015,15.015,0,0,1,1.794-5.328,9.736,9.736,0,0,1,3.861-3.712,13.984,13.984,0,0,1,6.707-1.376,13.064,13.064,0,0,1,5.9,1.168,8.9,8.9,0,0,1,3.621,3.291,13.789,13.789,0,0,1,1.8,5.148,43.389,43.389,0,0,1,.479,6.736v1.858h-16.343v2.572a18.129,18.129,0,0,0,.207,2.784,9.143,9.143,0,0,0,.69,2.4,4.535,4.535,0,0,0,1.257,1.676,2.954,2.954,0,0,0,1.918.629,3.353,3.353,0,0,0,3.051-1.5,11.1,11.1,0,0,0,1.319-4.55h7.422q-.24,5.629-2.995,8.562t-8.679,2.935A13.742,13.742,0,0,1,3573.033-3071.913Zm5-26.013a4.082,4.082,0,0,0-1.288,1.5,7.415,7.415,0,0,0-.69,2.066,12.536,12.536,0,0,0-.207,2.273v1.26h8.442c-.043-1.239-.12-2.325-.243-3.266a8.351,8.351,0,0,0-.627-2.392,3.341,3.341,0,0,0-1.257-1.5,3.823,3.823,0,0,0-2.065-.51A3.5,3.5,0,0,0,3578.034-3097.926Zm24.008,26.7a3.993,3.993,0,0,1-2.338-1.316,5.677,5.677,0,0,1-1.1-2.6,22.654,22.654,0,0,1-.3-4.071v-18.44h-4.192v-5.627h4.192v-9.22h8.262v9.22h4.79v5.627h-4.79v17.423a4.887,4.887,0,0,0,.57,2.723,2.752,2.752,0,0,0,2.365.81c.319,0,.638-.011.957-.032s.618-.049.9-.091v5.75q-1.376,0-2.664.089t-2.724.091A19.138,19.138,0,0,1,3602.042-3071.226Zm99.77.151v-32.21h7.9v4.31h.12a11.7,11.7,0,0,1,3.054-3.74,6.849,6.849,0,0,1,4.37-1.407c.24,0,.488.009.747.028s.51.052.749.091v7.9c-.439-.043-.869-.071-1.287-.091s-.847-.029-1.289-.029a8.012,8.012,0,0,0-2.154.3,5.811,5.811,0,0,0-1.974.989,4.923,4.923,0,0,0-1.435,1.8,6.149,6.149,0,0,0-.542,2.724v19.337Zm-166.074,0v-42.747h14.428a20.9,20.9,0,0,1,4.877.539,10,10,0,0,1,3.861,1.794,8.3,8.3,0,0,1,2.516,3.353,13.1,13.1,0,0,1,.9,5.149,10.685,10.685,0,0,1-1.616,5.958,8.128,8.128,0,0,1-4.849,3.383v.119a8.465,8.465,0,0,1,5.687,3.054,10.585,10.585,0,0,1,2.094,6.885,17.186,17.186,0,0,1-.657,4.789,9.739,9.739,0,0,1-2.246,3.98,11.179,11.179,0,0,1-4.132,2.725,17.016,17.016,0,0,1-6.314,1.02Zm8.618-6.348h3.354a8.423,8.423,0,0,0,5.028-1.376q1.916-1.376,1.916-5.088a8.092,8.092,0,0,0-.508-3.084,5.152,5.152,0,0,0-1.379-1.977,4.929,4.929,0,0,0-2.063-1.046,10.883,10.883,0,0,0-2.635-.3h-3.712Zm0-18.855h2.456q3.59,0,5.237-1.289t1.647-4.342q0-3.05-1.495-4.31a7.3,7.3,0,0,0-4.731-1.257h-3.113Z" transform="translate(-3434 3136.001)"/>
</svg>
