<svg xmlns="http://www.w3.org/2000/svg" width="175.888" height="45.876" viewBox="0 0 175.888 45.876">
  <g id="Grupo_419" data-name="Grupo 419" transform="translate(-187.645 1587.704)">
    <g id="Grupo_292" data-name="Grupo 292" transform="translate(239.629 -1578.005)">
      <path id="Trazado_1884" data-name="Trazado 1884" d="M353.091-1517.76q-5.665,0-8.63-3.151t-2.966-8.949A13.756,13.756,0,0,1,342.4-1535a11.068,11.068,0,0,1,2.48-3.821,10.369,10.369,0,0,1,3.753-2.363,13.533,13.533,0,0,1,4.726-.8,15.135,15.135,0,0,1,2.681.218,17.557,17.557,0,0,1,2.111.5,10.457,10.457,0,0,1,1.508.586q.6.3.871.469l-1.508,4.223a12.691,12.691,0,0,0-2.5-.972,11.909,11.909,0,0,0-3.234-.4,7.14,7.14,0,0,0-2.363.4,5.345,5.345,0,0,0-2.044,1.29,6.422,6.422,0,0,0-1.424,2.3,9.617,9.617,0,0,0-.536,3.418,12.208,12.208,0,0,0,.352,3,6.361,6.361,0,0,0,1.139,2.4,5.465,5.465,0,0,0,2.061,1.592,7.333,7.333,0,0,0,3.083.586,14.01,14.01,0,0,0,2.044-.134,15.185,15.185,0,0,0,1.609-.318,8.442,8.442,0,0,0,1.24-.419q.535-.234.972-.436l1.441,4.19a12.229,12.229,0,0,1-3.117,1.207A18.178,18.178,0,0,1,353.091-1517.76Z" transform="translate(-341.495 1544.238)"/>
      <path id="Trazado_1885" data-name="Trazado 1885" d="M417.378-1515.71a11.453,11.453,0,0,1-.6,3.8,8.267,8.267,0,0,1-1.743,2.95,7.838,7.838,0,0,1-2.732,1.893,9.114,9.114,0,0,1-3.569.671,9.022,9.022,0,0,1-3.536-.671,7.832,7.832,0,0,1-2.732-1.893,8.65,8.65,0,0,1-1.776-2.95,10.908,10.908,0,0,1-.637-3.8,10.53,10.53,0,0,1,.653-3.787,8.584,8.584,0,0,1,1.81-2.916,8.134,8.134,0,0,1,2.748-1.877,8.845,8.845,0,0,1,3.469-.67,8.937,8.937,0,0,1,3.5.67,7.967,7.967,0,0,1,2.732,1.877,8.528,8.528,0,0,1,1.776,2.916A10.782,10.782,0,0,1,417.378-1515.71Zm-5.095,0a6.283,6.283,0,0,0-.922-3.636,3.015,3.015,0,0,0-2.631-1.324,3.055,3.055,0,0,0-2.647,1.324,6.191,6.191,0,0,0-.939,3.636,6.354,6.354,0,0,0,.939,3.67,3.032,3.032,0,0,0,2.647,1.357,2.992,2.992,0,0,0,2.631-1.357A6.448,6.448,0,0,0,412.284-1515.71Z" transform="translate(-380.578 1532.87)"/>
      <path id="Trazado_1886" data-name="Trazado 1886" d="M473.514-1515.71a11.454,11.454,0,0,1-.6,3.8,8.267,8.267,0,0,1-1.743,2.95,7.838,7.838,0,0,1-2.732,1.893,9.115,9.115,0,0,1-3.569.671,9.022,9.022,0,0,1-3.536-.671,7.832,7.832,0,0,1-2.732-1.893,8.656,8.656,0,0,1-1.776-2.95,10.908,10.908,0,0,1-.637-3.8,10.53,10.53,0,0,1,.653-3.787,8.589,8.589,0,0,1,1.81-2.916,8.134,8.134,0,0,1,2.748-1.877,8.846,8.846,0,0,1,3.469-.67,8.938,8.938,0,0,1,3.5.67,7.966,7.966,0,0,1,2.732,1.877,8.529,8.529,0,0,1,1.776,2.916A10.782,10.782,0,0,1,473.514-1515.71Zm-5.095,0a6.28,6.28,0,0,0-.921-3.636,3.015,3.015,0,0,0-2.631-1.324,3.055,3.055,0,0,0-2.648,1.324,6.191,6.191,0,0,0-.939,3.636,6.354,6.354,0,0,0,.939,3.67,3.032,3.032,0,0,0,2.648,1.357,2.992,2.992,0,0,0,2.631-1.357A6.446,6.446,0,0,0,468.42-1515.71Z" transform="translate(-418.047 1532.87)"/>
      <path id="Trazado_1887" data-name="Trazado 1887" d="M528.711-1523.307q-.671.2-1.542.385t-1.827.318q-.954.134-1.943.218t-1.894.084a11.087,11.087,0,0,1-3.888-.637,7.8,7.8,0,0,1-2.882-1.826,7.92,7.92,0,0,1-1.793-2.882,11.006,11.006,0,0,1-.62-3.8,13,13,0,0,1,.536-3.871,8.416,8.416,0,0,1,1.542-2.933,6.6,6.6,0,0,1,2.463-1.843,8.257,8.257,0,0,1,3.334-.637,7.843,7.843,0,0,1,1.86.2,10.111,10.111,0,0,1,1.659.57v-7.977l4.993-.8Zm-11.295-8.379a6.116,6.116,0,0,0,1.039,3.72,3.587,3.587,0,0,0,3.083,1.408q.67,0,1.24-.05t.939-.117v-9.083a4.348,4.348,0,0,0-1.224-.5,5.9,5.9,0,0,0-1.525-.2Q517.416-1536.512,517.416-1531.686Z" transform="translate(-455.514 1548.745)"/>
      <path id="Trazado_1888" data-name="Trazado 1888" d="M568.156-1515.542a10.782,10.782,0,0,1,.72-4.106,8.8,8.8,0,0,1,1.894-2.932,7.874,7.874,0,0,1,2.7-1.776,8.453,8.453,0,0,1,3.134-.6,7.79,7.79,0,0,1,5.932,2.3q2.178,2.3,2.179,6.753c0,.291-.012.609-.034.955s-.045.653-.067.922H573.284a3.316,3.316,0,0,0,1.442,2.447,5.79,5.79,0,0,0,3.418.9,14.443,14.443,0,0,0,2.7-.251,10.189,10.189,0,0,0,2.162-.62l.67,4.055a6.849,6.849,0,0,1-1.072.4,14.117,14.117,0,0,1-1.491.352q-.822.151-1.76.251a17.6,17.6,0,0,1-1.877.1,11.11,11.11,0,0,1-4.139-.7,8.053,8.053,0,0,1-2.916-1.927,7.644,7.644,0,0,1-1.709-2.9A11.468,11.468,0,0,1,568.156-1515.542Zm11.73-1.911a5.2,5.2,0,0,0-.218-1.24,3.11,3.11,0,0,0-.57-1.072,3.04,3.04,0,0,0-.972-.771,3.168,3.168,0,0,0-1.458-.3,3.349,3.349,0,0,0-1.441.285,2.979,2.979,0,0,0-1.006.754,3.39,3.39,0,0,0-.62,1.089,7.171,7.171,0,0,0-.318,1.257Z" transform="translate(-492.781 1532.87)"/>
      <path id="Trazado_1889" data-name="Trazado 1889" d="M627.469-1510.448a4.978,4.978,0,0,0,1.944-.268,1.035,1.035,0,0,0,.57-1.039,1.273,1.273,0,0,0-.737-1.056,14.061,14.061,0,0,0-2.246-1.022,22.86,22.86,0,0,1-2.128-.9,6.256,6.256,0,0,1-1.625-1.123,4.533,4.533,0,0,1-1.039-1.558,5.756,5.756,0,0,1-.369-2.178,4.712,4.712,0,0,1,1.843-3.921,8.02,8.02,0,0,1,5.061-1.441,16.256,16.256,0,0,1,3.083.285,14.433,14.433,0,0,1,2.346.62l-.871,3.888a18.439,18.439,0,0,0-1.894-.536,10.3,10.3,0,0,0-2.3-.234q-2.346,0-2.346,1.307a1.338,1.338,0,0,0,.1.536,1.143,1.143,0,0,0,.4.453,5.613,5.613,0,0,0,.821.471q.519.254,1.324.557a20.549,20.549,0,0,1,2.715,1.2,6.488,6.488,0,0,1,1.692,1.277,3.938,3.938,0,0,1,.871,1.522,6.739,6.739,0,0,1,.252,1.939,4.468,4.468,0,0,1-1.961,3.946,9.779,9.779,0,0,1-5.547,1.338,15.947,15.947,0,0,1-3.9-.4,15.809,15.809,0,0,1-2.162-.67l.838-4.055a16.331,16.331,0,0,0,2.614.788A12.721,12.721,0,0,0,627.469-1510.448Z" transform="translate(-528.298 1532.87)"/>
      <path id="Trazado_1890" data-name="Trazado 1890" d="M668.331-1522.737v-25.2l4.994-.8v8.446a10.368,10.368,0,0,1,1.29-.319,8.11,8.11,0,0,1,1.524-.151,9.443,9.443,0,0,1,3.57.586,5.547,5.547,0,0,1,2.279,1.659,6.419,6.419,0,0,1,1.207,2.547,14.165,14.165,0,0,1,.352,3.285v9.954h-4.994v-9.351a6.886,6.886,0,0,0-.62-3.418,2.479,2.479,0,0,0-2.3-1.006,6.433,6.433,0,0,0-1.257.117q-.586.118-1.055.251v13.406Z" transform="translate(-559.643 1548.745)"/>
    </g>
    <g id="Grupo_294" data-name="Grupo 294" transform="translate(187.645 -1587.704)">
      <path id="Trazado_1891" data-name="Trazado 1891" d="M241.684-1592.583v6.217h.007a16.749,16.749,0,0,1,16.749,16.749,16.749,16.749,0,0,1-16.749,16.749h-.007v6.161a22.964,22.964,0,0,0,22.938-22.938A22.964,22.964,0,0,0,241.684-1592.583Z" transform="translate(-224.884 1592.583)"/>
      <g id="Grupo_293" data-name="Grupo 293" transform="translate(0 6.216)">
        <path id="Trazado_1892" data-name="Trazado 1892" d="M197.178-1536.4v-6.226a10.533,10.533,0,0,1-10.533-10.533,10.534,10.534,0,0,1,10.533-10.534v-6.226a16.759,16.759,0,0,0-16.759,16.759A16.759,16.759,0,0,0,197.178-1536.4Z" transform="translate(-180.419 1569.915)"/>
        <g id="Trazado_1893" data-name="Trazado 1893" transform="translate(-224.775 1569.915)" fill="none">
          <path d="M252.141-1553.16h6.269a16.818,16.818,0,0,0-16.876-16.755v6.226A10.571,10.571,0,0,1,252.141-1553.16Z" stroke="none"/>
          <path d="M 256.2753295898438 -1555.159545898438 C 255.8428192138672 -1558.34033203125 254.3827362060547 -1561.279418945312 252.05712890625 -1563.58837890625 C 249.7237854003906 -1565.905029296875 246.7514801025391 -1567.357543945312 243.5339965820312 -1567.78369140625 L 243.5339965820312 -1565.533325195312 C 246.1385192871094 -1565.123046875 248.5403137207031 -1563.912719726562 250.4421539306641 -1562.024658203125 C 252.3448638916016 -1560.1357421875 253.5657958984375 -1557.7490234375 253.9819030761719 -1555.159545898438 L 256.2753295898438 -1555.159545898438 M 258.4103698730469 -1553.159545898438 L 252.1411437988281 -1553.159545898438 C 252.1389465332031 -1558.975341796875 247.3909606933594 -1563.689208984375 241.5339965820312 -1563.689208984375 L 241.5339965820312 -1569.9150390625 C 250.8534851074219 -1569.9150390625 258.408447265625 -1562.413818359375 258.4103698730469 -1553.159545898438 Z" stroke="none" fill="#000"/>
        </g>
      </g>
    </g>
  </g>
</svg>
