<svg id="Grupo_400" data-name="Grupo 400" xmlns="http://www.w3.org/2000/svg" width="160.094" height="51.96" viewBox="0 0 160.094 51.96">
  <g id="Grupo_322" data-name="Grupo 322" transform="translate(0 15.724)">
    <path id="Trazado_1926" data-name="Trazado 1926" d="M-5814.112,4870.532a3.962,3.962,0,0,0-1.856-.431,4.144,4.144,0,0,0-2.475.793,5.314,5.314,0,0,0-1.733,2.2,7.7,7.7,0,0,0-.634,3.189,8.594,8.594,0,0,0,.647,3.349,6.227,6.227,0,0,0,1.747,2.462,3.677,3.677,0,0,0,2.4.914,4.446,4.446,0,0,0,1.333-.215,4.109,4.109,0,0,0,1.143-.538c.3-.215.458-.42.458-.618v1.1a6.454,6.454,0,0,1-.646,3.173,2.012,2.012,0,0,1-1.831,1.13,2.717,2.717,0,0,1-1.641-.578,4.159,4.159,0,0,1-1.264-1.6l-.941.915a6.608,6.608,0,0,0,2.058,1.829,5.609,5.609,0,0,0,2.542.512,5.245,5.245,0,0,0,3.929-1.333,5.613,5.613,0,0,0,1.291-4.047v-13.183l-3.5,2.018A1.861,1.861,0,0,0-5814.112,4870.532Zm1.023,9.629q-.4,2.126-1.668,2.126-1.13,0-1.709-1.493a12.916,12.916,0,0,1-.578-4.426,11.574,11.574,0,0,1,.565-4.183,1.864,1.864,0,0,1,1.75-1.358,1.321,1.321,0,0,1,1.061.458,3.2,3.2,0,0,1,.58,1.48Z" transform="translate(5820.811 -4863.644)" fill="#121212"/>
    <path id="Trazado_1927" data-name="Trazado 1927" d="M-5623.1,4881.21a3.947,3.947,0,0,0-1.185-3.054,4.7,4.7,0,0,0-3.308-1.09,9.137,9.137,0,0,0-3.243.525,2.8,2.8,0,0,0-1.733,1.358l.94,1.1a2.6,2.6,0,0,1,.807-1.6,2.588,2.588,0,0,1,1.722-.525,2.692,2.692,0,0,1,1.83.566,2,2,0,0,1,.645,1.587v2.664a4.828,4.828,0,0,0-1.654-.984,5.5,5.5,0,0,0-1.922-.389,3.723,3.723,0,0,0-2.033.606,4.6,4.6,0,0,0-1.534,1.6,4.158,4.158,0,0,0-.578,2.125,4.174,4.174,0,0,0,.565,2.1,4.423,4.423,0,0,0,1.492,1.587,3.659,3.659,0,0,0,2,.592,5.771,5.771,0,0,0,2.113-.335,3.707,3.707,0,0,0,1.465-1.063l.377,1.13h3.711a4.628,4.628,0,0,1-.483-1.237Zm-3.5,5.864a3,3,0,0,1-.793,1.4,1.781,1.781,0,0,1-1.251.485,1.6,1.6,0,0,1-1.437-.781,4.264,4.264,0,0,1-.5-2.288,5.431,5.431,0,0,1,.472-2.474,1.424,1.424,0,0,1,1.277-.916,2.2,2.2,0,0,1,1.117.365,4.375,4.375,0,0,1,1.115.98Z" transform="translate(5647.716 -4870.611)" fill="#121212"/>
    <path id="Trazado_1928" data-name="Trazado 1928" d="M-5446.53,4835.881a1.249,1.249,0,0,1-1.022.511,1.589,1.589,0,0,1-1.291-.7,2.615,2.615,0,0,1-.539-1.641v-8.046h2.125v-.671h-2.125v-4.546l-3.5,1.749v2.8H-5455v.671h2.125v8.448a2.813,2.813,0,0,0,.525,1.642,3.671,3.671,0,0,0,1.425,1.2,4.417,4.417,0,0,0,1.979.443,3.859,3.859,0,0,0,3.5-2.125l-.671-1.05A2.065,2.065,0,0,1-5446.53,4835.881Z" transform="translate(5481.234 -4818.368)" fill="#121212"/>
    <path id="Trazado_1929" data-name="Trazado 1929" d="M-5293.684,4877.86a5.615,5.615,0,0,0-2.972-.794,5.742,5.742,0,0,0-3.041.835,6.074,6.074,0,0,0-2.178,2.285,6.471,6.471,0,0,0-.807,3.2,7.212,7.212,0,0,0,.766,3.3,6.013,6.013,0,0,0,2.152,2.407,5.634,5.634,0,0,0,3.108.888,5.5,5.5,0,0,0,3-.82,5.417,5.417,0,0,0,2.018-2.312,7.952,7.952,0,0,0,.712-3.458,7.2,7.2,0,0,0-.725-3.308A5.416,5.416,0,0,0-5293.684,4877.86Zm-1.534,9.953q-.524,1.629-1.438,1.629-1.049,0-1.655-1.629a13.073,13.073,0,0,1-.605-4.425,12.111,12.111,0,0,1,.593-4.276q.59-1.508,1.668-1.506.94,0,1.452,1.518a13.947,13.947,0,0,1,.512,4.265A14.908,14.908,0,0,1-5295.217,4887.813Z" transform="translate(5339.832 -4870.611)" fill="#121212"/>
    <path id="Trazado_1930" data-name="Trazado 1930" d="M-4181.624,4793.479a4.413,4.413,0,0,0-1.883.377,5.622,5.622,0,0,0-1.693,1.346v-8.179l-3.5,1.884v17.216h3.5v-9.846a1.246,1.246,0,0,1,.589-.982,2.115,2.115,0,0,1,1.294-.443,1.3,1.3,0,0,1,1.076.471,2.081,2.081,0,0,1,.376,1.33v9.47h3.5v-9.47a3.2,3.2,0,0,0-.806-2.381A3.371,3.371,0,0,0-4181.624,4793.479Z" transform="translate(4299.698 -4787.022)" fill="#121212"/>
    <path id="Trazado_1931" data-name="Trazado 1931" d="M-4003.741,4877.86a5.62,5.62,0,0,0-2.972-.794,5.741,5.741,0,0,0-3.041.835,6.069,6.069,0,0,0-2.179,2.285,6.48,6.48,0,0,0-.806,3.2,7.217,7.217,0,0,0,.765,3.3,6.012,6.012,0,0,0,2.153,2.407,5.629,5.629,0,0,0,3.107.888,5.5,5.5,0,0,0,3-.82,5.419,5.419,0,0,0,2.018-2.312,7.959,7.959,0,0,0,.713-3.458,7.209,7.209,0,0,0-.726-3.308A5.42,5.42,0,0,0-4003.741,4877.86Zm-1.534,9.953q-.524,1.629-1.438,1.629-1.05,0-1.655-1.629a13.048,13.048,0,0,1-.605-4.425,12.136,12.136,0,0,1,.592-4.276q.591-1.508,1.668-1.506.939,0,1.452,1.518a14,14,0,0,1,.511,4.265A14.892,14.892,0,0,1-4005.275,4887.813Z" transform="translate(4136.355 -4870.611)" fill="#121212"/>
    <path id="Trazado_1932" data-name="Trazado 1932" d="M-3816.149,4806.123h3.5v-19.1l-3.5,1.884Z" transform="translate(3953.862 -4787.022)" fill="#121212"/>
    <path id="Trazado_1933" data-name="Trazado 1933" d="M-3731.666,4802.554a2.079,2.079,0,0,0-1.425-.524,2.078,2.078,0,0,0-1.425.524,1.7,1.7,0,0,0-.592,1.332,1.77,1.77,0,0,0,.592,1.371,2.041,2.041,0,0,0,1.425.539,2.041,2.041,0,0,0,1.425-.539,1.77,1.77,0,0,0,.592-1.371A1.7,1.7,0,0,0-3731.666,4802.554Z" transform="translate(3878.633 -4800.954)" fill="#121212"/>
    <path id="Trazado_1934" data-name="Trazado 1934" d="M-3731.357,4889.71h3.5v-12.644l-3.5,1.885Z" transform="translate(3875.15 -4870.611)" fill="#121212"/>
    <path id="Trazado_1935" data-name="Trazado 1935" d="M-3642.326,4886.939a5.638,5.638,0,0,1-1.574,1.775,3.087,3.087,0,0,1-1.762.728q-1.1,0-1.749-1.655a12.793,12.793,0,0,1-.646-4.533,11.36,11.36,0,0,1,.6-4.2q.6-1.452,1.762-1.451a3.626,3.626,0,0,1,1.883.659,3.673,3.673,0,0,1,1.425,1.438l.727-.806a6.677,6.677,0,0,0-1.9-1.347,4.8,4.8,0,0,0-2.031-.484,6.281,6.281,0,0,0-3.229.835,5.848,5.848,0,0,0-2.219,2.285,6.733,6.733,0,0,0-.793,3.282,6.852,6.852,0,0,0,.807,3.335,5.969,5.969,0,0,0,2.233,2.327,6.14,6.14,0,0,0,3.2.848,4.705,4.705,0,0,0,2.394-.727,5.84,5.84,0,0,0,1.964-1.828Z" transform="translate(3801.317 -4870.611)" fill="#121212"/>
  </g>
  <g id="Grupo_323" data-name="Grupo 323" transform="translate(56.305)">
    <path id="Trazado_1936" data-name="Trazado 1936" d="M-5002.1,4512.556a4.455,4.455,0,0,0-3.647-1.98,4.408,4.408,0,0,0-3.541,1.871l-8.128,8.938a47.261,47.261,0,0,0-7.868-.589,48.14,48.14,0,0,0-7.351.508l-8.054-8.857a4.411,4.411,0,0,0-3.542-1.871,4.452,4.452,0,0,0-3.646,1.98,6.074,6.074,0,0,0-1.059,3.532l0,22.494a23.777,23.777,0,0,0,1.881,9.326,23.9,23.9,0,0,0,5.131,7.613,23.886,23.886,0,0,0,7.614,5.131,23.786,23.786,0,0,0,9.322,1.884,23.8,23.8,0,0,0,9.324-1.883,23.874,23.874,0,0,0,7.612-5.132,23.9,23.9,0,0,0,5.132-7.611,23.807,23.807,0,0,0,1.882-9.324v-22.5A6.082,6.082,0,0,0-5002.1,4512.556Zm-.191,26.03a22.55,22.55,0,0,1-1.785,8.836,22.618,22.618,0,0,1-4.864,7.215,22.624,22.624,0,0,1-7.213,4.863,22.565,22.565,0,0,1-8.838,1.784,22.549,22.549,0,0,1-8.836-1.784,22.649,22.649,0,0,1-7.216-4.864,22.654,22.654,0,0,1-4.862-7.217,22.539,22.539,0,0,1-1.784-8.836l.005-22.495a4.846,4.846,0,0,1,.829-2.812,3.224,3.224,0,0,1,2.625-1.45,3.168,3.168,0,0,1,2.571,1.413l8.557,9.41a44.855,44.855,0,0,1,7.818-.6,43.555,43.555,0,0,1,8.327.692l8.64-9.5a3.167,3.167,0,0,1,2.571-1.413,3.226,3.226,0,0,1,2.625,1.45,4.836,4.836,0,0,1,.83,2.812Z" transform="translate(5048.938 -4510.575)"/>
  </g>
  <g id="Grupo_361" data-name="Grupo 361" transform="translate(59.431 3.064)">
    <path id="Trazado_1937" data-name="Trazado 1937" d="M-4959.97,4560.28l-8.816,9.695a2.035,2.035,0,0,1-.15.2c.845.4,1.689.812,2.523,1.3-1.026-.043-3.6-1.684-12-1.684s-10.979,1.653-12,1.684c.959-.547,1.934-.987,2.906-1.437l.087-.037c-.006-.01-.016-.02-.021-.03l-8.816-9.695c-.985-1.5-2.677-.443-2.677,1.682l0,22.492a20.823,20.823,0,0,0,20.822,20.827h0a20.823,20.823,0,0,0,20.824-20.823v-22.5C-4957.292,4559.837-4958.983,4558.776-4959.97,4560.28Z" transform="translate(4998.938 -4559.575)" fill="#fff"/>
    <path id="Trazado_1938" data-name="Trazado 1938" d="M-4694.568,5075.956q-1.987,0-1.988,1.368a3.458,3.458,0,0,0,.655,1.889q.654,1,1.385.995a2.059,2.059,0,0,0,1.49-.9,2.8,2.8,0,0,0,.756-1.8,1.317,1.317,0,0,0-.364-.947A2.673,2.673,0,0,0-4694.568,5075.956Z" transform="translate(4715.466 -5043.663)" fill="#fff"/>
  </g>
  <g id="Grupo_360" data-name="Grupo 360" transform="translate(59.431 3.064)">
    <path id="Trazado_1937-2" data-name="Trazado 1937" d="M-4959.97,4560.28l-8.816,9.695a2.035,2.035,0,0,1-.15.2c.845.4,1.689.812,2.523,1.3-1.026-.043-3.6-1.684-12-1.684s-10.979,1.653-12,1.684c.959-.547,1.934-.987,2.906-1.437l.087-.037c-.006-.01-.016-.02-.021-.03l-8.816-9.695c-.985-1.5-2.677-.443-2.677,1.682l0,22.492a20.823,20.823,0,0,0,20.822,20.827h0a20.823,20.823,0,0,0,20.824-20.823v-22.5C-4957.292,4559.837-4958.983,4558.776-4959.97,4560.28Zm-9.041,35.421a2.2,2.2,0,0,0-1.743,2.1v.011a3,3,0,0,1-2.394,2.843c-.07.016-.6.031-1.386.039a.576.576,0,0,1-.582-.575v-1.242a.625.625,0,0,0-.626-.625.624.624,0,0,0-.625.625v1.256a.577.577,0,0,1-.576.576c-.629,0-1.282,0-1.914,0a.577.577,0,0,1-.575-.576v-1.256a.623.623,0,0,0-.624-.625.624.624,0,0,0-.625.625v1.242a.577.577,0,0,1-.584.575c-.8-.008-1.34-.022-1.412-.039a3,3,0,0,1-2.394-2.843v-.011a2.2,2.2,0,0,0-1.744-2.1c-5.07-1.247-8.6-5.771-7.9-10.786h0a12.972,12.972,0,0,1,.277-1.42c0,.135.007.268.017.4a8,8,0,0,0,2.466,5.231,8.012,8.012,0,0,0,5.233,2.469,6.014,6.014,0,0,0,4.913-1.73,6.018,6.018,0,0,0,1.73-4.911,8.027,8.027,0,0,0-2.468-5.237,7.99,7.99,0,0,0-5.233-2.462,6.4,6.4,0,0,0-3.343.593c3.123-2.937,7.908-4.368,13.209-4.368,5.188,0,9.887,1.369,13.011,4.185a6.579,6.579,0,0,0-2.932-.411,7.987,7.987,0,0,0-5.231,2.462,8.018,8.018,0,0,0-2.468,5.237,6.011,6.011,0,0,0,1.729,4.911,6.007,6.007,0,0,0,4.91,1.73,8.019,8.019,0,0,0,5.237-2.469,8.033,8.033,0,0,0,2.434-4.893q.063.333.111.677h0C-4960.411,4589.93-4963.939,4594.455-4969.011,4595.7Z" transform="translate(4998.938 -4559.575)" fill="#121212"/>
    <path id="Trazado_1938-2" data-name="Trazado 1938" d="M-4694.568,5075.956q-1.987,0-1.988,1.368a3.458,3.458,0,0,0,.655,1.889q.654,1,1.385.995a2.059,2.059,0,0,0,1.49-.9,2.8,2.8,0,0,0,.756-1.8,1.317,1.317,0,0,0-.364-.947A2.673,2.673,0,0,0-4694.568,5075.956Z" transform="translate(4715.466 -5043.663)" fill="#121212"/>
  </g>
</svg>
