<svg xmlns="http://www.w3.org/2000/svg" width="451.9" height="104.983" viewBox="0 0 451.9 104.983">
  <path id="Unión_8" data-name="Unión 8" d="M82.908,101.056c-34.741-11.17-40.088-41.6-40.088-41.6l.01.006A37.013,37.013,0,0,1,78.938,13.793h21a37.03,37.03,0,1,1,0,74.06h-13.6a2.848,2.848,0,0,0-2.789,2.2,15.231,15.231,0,0,0,.751,9.454,1.125,1.125,0,0,1-1.028,1.6A1.165,1.165,0,0,1,82.908,101.056Zm5.431-61.4L94.972,47.6A5.219,5.219,0,0,0,96.242,48.7v6.407a2.631,2.631,0,0,0,3.035,2.7A2.716,2.716,0,0,0,101.39,55.1V48.7a5.223,5.223,0,0,0,1.272-1.106l6.632-7.944a5.484,5.484,0,0,0-4.227-9h-12.5A5.484,5.484,0,0,0,88.339,39.654ZM262.427,72.315q-3.8-3.209-3.8-10.433V27.535q.882-.242,2.523-.521a20.532,20.532,0,0,1,3.483-.283,10.242,10.242,0,0,1,5.486,1.245q1.959,1.246,1.96,5.257v5.136h10.49a13.8,13.8,0,0,1,.921,2.207,9.242,9.242,0,0,1,.441,2.929,5.576,5.576,0,0,1-1.242,4.052,4.482,4.482,0,0,1-3.323,1.245h-7.286V60.919a3.305,3.305,0,0,0,1.321,2.969,6.663,6.663,0,0,0,3.723.884,16.011,16.011,0,0,0,2.483-.2,13.85,13.85,0,0,0,2.242-.521,9.921,9.921,0,0,1,1.24,1.966,5.971,5.971,0,0,1,.52,2.607,6.21,6.21,0,0,1-2.281,4.976q-2.283,1.925-8.047,1.926Q266.23,75.525,262.427,72.315Zm-18.922,1.536a5.331,5.331,0,0,1-2.334-.948,4.534,4.534,0,0,1-1.464-1.933,8.327,8.327,0,0,1-.515-3.2V35.662q.872-.159,2.578-.435A19.379,19.379,0,0,1,244,34.978a20.773,20.773,0,0,1,4.33.211,5.347,5.347,0,0,1,2.335.946,4.576,4.576,0,0,1,1.463,1.935,8.343,8.343,0,0,1,.515,3.195V73.377q-.872.157-2.57.434a18.8,18.8,0,0,1-2.235.249q-.626.027-1.212.027A18.772,18.772,0,0,1,243.506,73.851ZM212.543,73.6a17.013,17.013,0,0,1-4.687-1.407,8.361,8.361,0,0,1-3.049-2.393,5.466,5.466,0,0,1-1.106-3.421,5.829,5.829,0,0,1,.762-3.079,7.709,7.709,0,0,1,1.83-2.09,30.265,30.265,0,0,0,5.07,2.165,20.829,20.829,0,0,0,6.592.951,7.723,7.723,0,0,0,3.622-.684,2.048,2.048,0,0,0,1.257-1.824,1.906,1.906,0,0,0-.915-1.672,8.469,8.469,0,0,0-3.049-.988l-2.286-.456q-6.633-1.292-9.871-4.067t-3.24-7.943a10.483,10.483,0,0,1,4.649-8.893,17.267,17.267,0,0,1,5.3-2.356,26.066,26.066,0,0,1,6.821-.836,31.92,31.92,0,0,1,5.3.419,17.327,17.327,0,0,1,4.306,1.254,7.8,7.8,0,0,1,2.9,2.165A4.9,4.9,0,0,1,233.81,41.6a6.494,6.494,0,0,1-.647,3,6.761,6.761,0,0,1-1.64,2.089,9.435,9.435,0,0,0-1.83-.8c-.813-.278-1.7-.534-2.668-.76s-1.943-.418-2.934-.571a17.983,17.983,0,0,0-2.707-.229,10.485,10.485,0,0,0-3.887.57,1.892,1.892,0,0,0-1.372,1.786,1.605,1.605,0,0,0,.762,1.368,8.742,8.742,0,0,0,2.9.988l2.363.533q7.318,1.671,10.406,4.6a9.957,9.957,0,0,1,3.086,7.564,10.688,10.688,0,0,1-4.344,9.046q-4.346,3.266-12.806,3.268A36.3,36.3,0,0,1,212.543,73.6Zm85.684-.988a17.933,17.933,0,0,1-6.289-3.915,17.462,17.462,0,0,1-4.077-6.194,22.087,22.087,0,0,1-1.449-8.209,21.87,21.87,0,0,1,1.449-8.133,17.47,17.47,0,0,1,4.077-6.194,17.959,17.959,0,0,1,6.289-3.915,23.122,23.122,0,0,1,8.156-1.368,22.607,22.607,0,0,1,8.157,1.4,18.451,18.451,0,0,1,6.287,3.954,17.422,17.422,0,0,1,4.079,6.195,21.673,21.673,0,0,1,1.448,8.057,22.853,22.853,0,0,1-1.448,8.4,16.984,16.984,0,0,1-4.079,6.194,17.348,17.348,0,0,1-6.287,3.8,24.37,24.37,0,0,1-8.157,1.292A23.121,23.121,0,0,1,298.228,72.609Zm3.2-25.349q-1.752,2.473-1.753,7.032,0,4.636,1.791,7.106a5.817,5.817,0,0,0,4.993,2.47,5.6,5.6,0,0,0,4.916-2.508,12.424,12.424,0,0,0,1.716-7.069q0-4.56-1.753-7.032a6.206,6.206,0,0,0-9.91,0ZM172.054,72.609a17.92,17.92,0,0,1-6.288-3.915,17.455,17.455,0,0,1-4.079-6.194,22.087,22.087,0,0,1-1.448-8.209,21.87,21.87,0,0,1,1.448-8.133,17.463,17.463,0,0,1,4.079-6.194,17.946,17.946,0,0,1,6.288-3.915,23.125,23.125,0,0,1,8.156-1.368,22.605,22.605,0,0,1,8.156,1.4,18.454,18.454,0,0,1,6.29,3.954,17.455,17.455,0,0,1,4.077,6.195,21.654,21.654,0,0,1,1.448,8.057,22.834,22.834,0,0,1-1.448,8.4,17.015,17.015,0,0,1-4.077,6.194,17.352,17.352,0,0,1-6.29,3.8,24.369,24.369,0,0,1-8.156,1.292A23.125,23.125,0,0,1,172.054,72.609Zm3.2-25.349q-1.754,2.473-1.753,7.032,0,4.636,1.792,7.106a5.812,5.812,0,0,0,4.992,2.47A5.6,5.6,0,0,0,185.2,61.36a12.425,12.425,0,0,0,1.714-7.069q0-4.56-1.753-7.032a6.2,6.2,0,0,0-9.909,0Zm208.809,9.467a49.1,49.1,0,0,1,.067-7.795c.735-8.314,6.546-13.444,14.762-13.444,4.342,0,7.816,1.3,10.42,3.961a13.714,13.714,0,0,1,3.942,10.133V51.53a3.773,3.773,0,0,1-3.777,3.767H389.341v1.039c0,5.977,4.009,9.549,9.952,9.549a26.579,26.579,0,0,0,8.15-1.688c2.2-.845,3.874.455,3.874,2.077a2.6,2.6,0,0,1-1.469,2.339c-2.137,1.234-6.681,2.079-10.623,2.079C390.142,70.692,384.531,65.236,384.064,56.727Zm5.242-5.9h17.325a.769.769,0,0,0,.848-.779c.326-5.911-3.127-9.872-8.795-9.872C392.433,40.175,389.111,44.267,389.307,50.827Zm76.213,8.449c0-6.041,4.69-10.522,13.093-10.522a39.2,39.2,0,0,1,9.373,1.363V47.454c-.253-5.2-2.859-7.47-8.4-7.47a23.279,23.279,0,0,0-7.751,1.69c-2.085.779-3.779-.261-3.779-2.013a2.635,2.635,0,0,1,1.694-2.471,23.933,23.933,0,0,1,10.357-2.077c8.078,0,12.831,3.9,12.358,12.146V64.536a1.531,1.531,0,0,1-.634,2.144,20.281,20.281,0,0,1-5.406,2.468,25.64,25.64,0,0,1-7.881,1.17C470.21,70.318,465.52,65.966,465.52,59.276Zm5.53-.13c0,4.286,2.8,6.43,8.337,6.43,4.626,0,7.557-1.365,8.6-2.4V54.664a37.392,37.392,0,0,0-9.054-1.429C474.306,53.235,471.05,55.508,471.05,59.146ZM417.707,57.2a53.854,53.854,0,0,1,0-9.159c.717-8.248,5.536-12.925,13.679-12.925a18.728,18.728,0,0,1,8.771,2.077V26.28c.608-1.495,1.846-2.729,3.213-2.729a2.751,2.751,0,0,1,2.766,2.729v38a2.88,2.88,0,0,1-1.2,2.144,23.861,23.861,0,0,1-5.34,2.6,22.416,22.416,0,0,1-7.491,1.3C423.571,70.318,418.424,65.316,417.707,57.2Zm4.667-8.9a62.069,62.069,0,0,0,0,8.509q.783,8.573,9.185,8.573a15.1,15.1,0,0,0,4.821-.844,13.6,13.6,0,0,0,3.777-1.819v-20.4a18.166,18.166,0,0,0-9.185-2.273C425.632,40.05,422.766,42.777,422.375,48.3Zm31.234,18.966V38.3a3.284,3.284,0,0,1,2.986-2.728,3.234,3.234,0,0,1,2.992,2.728V67.265a3.119,3.119,0,0,1-2.992,2.728A3.334,3.334,0,0,1,453.609,67.265Zm-82.2,0V48.284q0-7.767-6.726-7.765a7.74,7.74,0,0,0-6.726,3.118V67.266s-1.609,2.727-3.107,2.727-2.871-2.727-2.871-2.727V48.129q0-8.039-7.474-8.039a13.184,13.184,0,0,0-7.473,2.156V67.266s-.812,2.727-2.311,2.727-3.668-2.727-3.668-2.727V41.011a3.2,3.2,0,0,1,1.393-2.577C335.426,36.12,339.269,35,343.91,35c4.707,0,8.154,1.324,10.207,4.033A15.945,15.945,0,0,1,364.591,35c8.815,0,12.793,4.561,12.793,13.486V67.266a2.349,2.349,0,0,1-2.409,2.727C373.476,69.993,371.4,67.266,371.4,67.266Zm-130-36.841a6.665,6.665,0,0,1-1.943-4.865,6.668,6.668,0,0,1,1.943-4.865,7.686,7.686,0,0,1,10.291,0,6.669,6.669,0,0,1,1.944,4.865,6.666,6.666,0,0,1-1.944,4.865,7.686,7.686,0,0,1-10.291,0ZM454.316,29.4a3.329,3.329,0,0,1,0-4.612,3.157,3.157,0,0,1,4.56,0,3.212,3.212,0,0,1,0,4.612,3.154,3.154,0,0,1-4.56,0ZM114.242,5.586a8.479,8.479,0,1,1,8.479,8.455A8.467,8.467,0,0,1,114.242,5.586Zm-67.641,0a8.479,8.479,0,1,1,8.479,8.455A8.468,8.468,0,0,1,46.6,5.586Z" transform="translate(-41.303 3.37)" stroke="rgba(0,0,0,0)" stroke-miterlimit="10" stroke-width="1"/>
</svg>
